# xmcd
# 
# Track frame offsets:
#     150
#     19991
#     42104
#     59359
#     75784
#     91351
#     109840
#     131089
#     148081
#     167869
# 
# Disc length: 2619
# 
# Revision: 6
# Processed by: cddbd v1.5.2PL0 Copyright (c) Steve Scherf et al.
# Submitted via: fre:ac v1.0.27
# 
DISCID=810a390a
DTITLE=松任谷由実 - そしてもう一度夢見るだろう
DYEAR=2009
DGENRE=JPop
TTITLE0=ピカデリー・サーカス
TTITLE1=まずはどこへ行こう
TTITLE2=ハートの落書き
TTITLE3=Flying Messenger
TTITLE4=黄色いロールスロイス
TTITLE5=Bueno Adios
TTITLE6=Judas Kiss
TTITLE7=Dangerous tonight
TTITLE8=夜空でつながっている
TTITLE9=人魚姫の夢（Album Version）
EXTD=
EXTT0=
EXTT1=
EXTT2=
EXTT3=
EXTT4=
EXTT5=
EXTT6=
EXTT7=
EXTT8=
EXTT9=
PLAYORDER=
